<?xml version="1.0" encoding="UTF-8"?>
<svg id="Layer_2" data-name="Layer 2" xmlns="http://www.w3.org/2000/svg" viewBox="0 0 275.99 170.93">
  <defs>
    <style>
      .cls-1 {
        fill: #afc8ad;
        stroke: #f2f1eb;
      }

      .cls-1, .cls-2 {
        stroke-miterlimit: 10;
      }

      .cls-2 {
        fill: #649b6c;
        stroke: #eee7da;
        stroke-width: 3px;
      }
    </style>
  </defs>
  <g id="Layer_1-2" data-name="Layer 1">
    <g>
      <g>
        <path class="cls-1" d="m172.21,12.39c-.73-.49-1.24-1.01-1.52-1.56-.28-.54-.38-1.42-.3-2.63.11-1.68,1.08-3.14,2.93-4.39,1.84-1.25,4.39-2.16,7.64-2.73s6.85-.72,10.81-.47c4.22.27,7.34,1.25,9.37,2.93,2.02,1.68,2.94,4.03,2.74,7.05-.12,1.78-.62,3.34-1.5,4.66-.89,1.32-2.29,2.5-4.2,3.54-2.12,1.13-9.11,2.52-20.96,4.18,3.52.54,6.49,1.22,8.91,2.04,2.42.82,4.32,1.96,5.68,3.45s1.97,3.4,1.82,5.76c-.17,2.57-1.45,5.05-3.86,7.45-2.41,2.4-5.67,4.29-9.78,5.67-4.12,1.38-8.63,1.91-13.53,1.59-3.51-.23-6.2-.95-8.07-2.16-1.87-1.21-2.75-2.66-2.64-4.34.06-.97.44-1.98,1.14-3.03.7-1.05,1.51-1.94,2.42-2.67.92-.73,1.68-1.08,2.28-1.04.37.02.54.17.53.43-.01.18-.17.53-.46,1.04-.28.25-.43.53-.45.84-.04.63.53,1.21,1.72,1.73s2.74.85,4.66.97c2.62.17,5.18.04,7.69-.39,2.5-.43,4.76-1.06,6.78-1.89s3.63-1.75,4.84-2.75c1.21-1,1.84-1.95,1.9-2.84.12-1.81-.96-3.12-3.24-3.92-2.28-.8-5.76-1.36-10.46-1.66-1.6-.1-3.15-.07-4.65.11-1.5.18-2.22.27-2.17.27-.39-.03-.57-.37-.53-1.02.07-1.02.43-2.31,1.1-3.88.67-1.56,1.4-2.57,2.19-3.02.49-.28,2.35-.6,5.57-.94,3.22-.35,5.99-.69,8.32-1.02s5.11-.98,8.36-1.93c2.04-.63,3.59-1.42,4.65-2.37,1.06-.94,1.62-1.82,1.67-2.64.13-2.04-2.33-3.23-7.39-3.56-2.46-.16-4.87-.16-7.23-.01-2.35.15-4.21.4-5.56.75-1.35.35-2.04.72-2.07,1.11-.02.34.1.62.36.85s.53.4.79.53c.27.12.71.31,1.33.56.15.06.3.18.45.36.15.18.21.38.2.59-.05.73-2.81.86-8.28.37Z"/>
        <path class="cls-1" d="m230.93,5l4.07.5c1.67.21,2.8.39,3.38.53.58.14.86.38.84.73-.02.29-1.29,1.03-3.82,2.22-2.52,1.19-4.63,2.23-6.32,3.11-1.69.88-4.05,2.39-7.08,4.54s-6.08,4.75-9.15,7.82c-.62.64-1.2,1.29-1.74,1.92-.54.64-1.02,1.24-1.44,1.82-.42.58-.66.89-.71.94,3-2.81,5.65-4.87,7.96-6.18,2.31-1.31,4.68-1.89,7.12-1.73,2.54.16,4.5,1.06,5.87,2.69,1.37,1.63,1.97,3.78,1.79,6.45-.19,2.99-1.44,6.23-3.75,9.73-2.3,3.5-5.11,6.4-8.42,8.7-3.31,2.3-6.43,3.36-9.37,3.17-1.81-.12-3.53-.94-5.17-2.47-1.64-1.53-2.91-3.45-3.81-5.75-.9-2.31-1.28-4.64-1.13-7,.21-3.2,1.59-6.81,4.15-10.85,2.56-4.03,6.15-7.92,10.76-11.66s9.93-6.82,15.95-9.22Zm-21.96,40.48c1.39.09,3.41-.73,6.06-2.45s5.03-3.89,7.13-6.49c2.1-2.6,3.23-5.12,3.39-7.56.14-2.2-.61-3.36-2.26-3.46-1.89-.12-4.95,1.38-9.17,4.5-2.54,1.89-4.43,3.63-5.65,5.22-1.22,1.59-1.9,3.44-2.03,5.54-.1,1.6.04,2.77.42,3.5.39.74,1.09,1.14,2.11,1.2Z"/>
        <path class="cls-1" d="m254.63,6.06c4.49.5,7.95.83,10.36.98,3.54.23,6.93.37,10.16.42-1.31,2.36-2.54,4.32-3.68,5.86-1.14,1.54-1.92,2.4-2.35,2.55-.7.17-3.26.11-7.69-.18-4.09-.26-7.01-.48-8.76-.64-3.1,2.3-5.66,5.27-7.68,8.9,5.01-1.36,8.73-1.96,11.17-1.81,3.17.2,5.58,1.27,7.24,3.19s2.37,4.59,2.15,8c-.28,4.33-1.94,8.1-4.97,11.33-3.04,3.23-6.8,5.64-11.29,7.23-4.48,1.59-9,2.24-13.53,1.95-2.59-.17-4.41-.69-5.45-1.58-1.04-.88-1.48-2.4-1.34-4.55.08-1.23.38-2.23.9-3,.52-.77,1.36-1.47,2.5-2.11,2.81-1.58,5.69-2.28,8.62-2.09.31.02.46.14.45.34,0,.11-.11.2-.32.3-.2.09-.32.14-.34.14-3.41,1.02-5.13,1.88-5.18,2.59-.04.68,1.04,1.09,3.24,1.24,3.22.21,6.64-.38,10.24-1.77,3.6-1.39,6.66-3.1,9.18-5.15,2.51-2.05,3.82-3.77,3.91-5.16.07-1.05-.37-1.91-1.31-2.57-.94-.67-2.33-1.06-4.17-1.18-1.78-.12-3.41-.07-4.89.14-1.47.21-3.15.51-5.01.9s-3.03.58-3.47.55c-.87-.06-1.43-.47-1.7-1.25-.27-.65-.54-1.29-.8-1.93-.26-.64-.47-1.29-.62-1.97-.15-.68-.23-1.25-.23-1.69,1.94-5.56,6.83-11.55,14.66-17.97Z"/>
      </g>
      <g>
        <path class="cls-2" d="m6.59,51.76v-30.44l13.62-3.41c8.19-1.99,14.79-3.85,19.81-5.57.07,1.31.1,2.37.1,3.2v18.78c0,11.49,1.1,24.53,3.3,39.11,4.06-3.85,7.84-8.36,11.35-13.52,10.04.9,17.78,2.86,23.22,5.88,5.37,3.1,8.98,7.29,10.83,12.59,1.79,5.37,2.68,12.69,2.68,21.98,0,9.84-1,17.54-2.99,23.11-2,5.37-5.61,10.59-10.83,15.69-5.09,5.02-10.15,8.46-15.17,10.32l-22.8-13.21c-1.79,5.09-3.17,8.43-4.13,10.01l-33.54,9.08c2.96-12.31,4.61-19.71,4.95-22.19.27-2.13.41-15.79.41-40.97,0-4.2-.14-10.28-.41-18.26-.28-8.74-.41-16.13-.41-22.19Zm42.62,27.76c-3.17,6.19-5.85,10.42-8.05,12.69,0,2.55-.05,6.04-.16,10.47-.1,4.44-.19,8.58-.26,12.43,5.16,2.27,11.38,4.51,18.68,6.71.41-2.61.62-5.06.62-7.33,0-13.76-3.61-25.42-10.83-34.98Z"/>
        <path class="cls-2" d="m100.18,88.29l2.79-12.9c13.83-2.27,29.68-7.64,47.57-16.1v18.16l-.31,7.74c0,1.03.03,1.96.1,2.79.07,2.27.1,5.4.1,9.39,0,1.79.03,3.23.1,4.33l.72,18.16c.14,3.92.65,12.73,1.55,26.42-14.17,2.48-26.49,4.33-36.94,5.57.96-8.67,1.44-21.57,1.44-38.7l-.41-25.9c-2.89,1.17-5.98,1.75-9.29,1.75-2.48,0-4.95-.24-7.43-.72Zm30.54-76.05c5.16,0,9.63,1.79,13.41,5.37,3.71,3.58,5.57,8.12,5.57,13.62,0,5.16-1.86,9.6-5.57,13.31-3.78,3.71-8.25,5.57-13.41,5.57s-9.6-1.86-13.31-5.57c-3.71-3.65-5.57-8.08-5.57-13.31s1.86-9.7,5.57-13.41c3.65-3.71,8.08-5.57,13.31-5.57Z"/>
        <path class="cls-2" d="m169.11,98.41l7.84-39.42c5.3,2.06,16.17,3.58,32.61,4.54l44.48,2.37-8.46,27.14c-12.32,4.89-24.87,13.48-37.66,25.8,5.09-1.65,10.15-2.48,15.17-2.48,7.57,0,15.89,1.17,24.97,3.51,3.44,6.4,6.5,12.93,9.18,19.61-2.06,4.61-7.29,14.07-15.68,28.38-3.44-6.47-6.6-12.11-9.49-16.92l-11.25-1.45c-14.17-1.79-25.63-2.68-34.36-2.68-4.82,0-10.29.31-16.41.93l35.6-49.33-5.47-.31c-6.67-.27-12.04-.41-16.1-.41-5.23,0-10.22.24-14.96.72Z"/>
      </g>
    </g>
  </g>
</svg>